<?xml version="1.0" encoding="UTF-8"?>
<svg version="1.1" xmlns="http://www.w3.org/2000/svg" width="500" height="500">
<path d="M0 0 C7.56291481 6.1371194 11.71106665 14.12227107 14.6875 23.25 C15.39584575 25.50160856 15.39584575 25.50160856 16.6875 27.25 C18.3510479 27.92441131 20.01816942 28.5900321 21.6875 29.25 C26.72057233 33.44422694 29.1753869 37.62423927 30.078125 44.015625 C30.52026004 51.85347342 28.72079136 57.21233303 23.6875 63.25 C18.29940832 68.12124835 12.75792638 68.57158809 5.76953125 68.5546875 C2.01446114 68.18346384 -0.4637507 67.06596172 -3.59375 65.02734375 C-6.66421694 63.63865529 -9.17337581 65.19858454 -12.1875 66.3125 C-20.68165305 68.70547645 -30.08890634 68.24073638 -38.0703125 64.51171875 C-47.86351588 59.00090918 -55.34421131 51.29431587 -58.89453125 40.4765625 C-61.13795354 28.52562131 -59.43647404 16.7465968 -52.515625 6.62109375 C-39.53118651 -9.14201458 -16.67794621 -11.53899492 0 0 Z " fill="#40CED6" transform="translate(114.3125,219.75)"/>
<path d="M0 0 C0.99 0.66 1.98 1.32 3 2 C3 2.66 3 3.32 3 4 C3.721875 4.226875 4.44375 4.45375 5.1875 4.6875 C10.1688912 7.01214923 13.54445389 10.67121389 15.484375 15.859375 C17.17668304 22.88501747 16.94844925 29.1503277 13.375 35.5 C9.9894655 40.48626003 6.76073364 43.07975545 1 45 C-7.36151346 45.90324991 -15.00019894 44.9904773 -22 40 C-22.703125 38.015625 -22.703125 38.015625 -23 36 C-23.515625 35.01 -24.03125 34.02 -24.5625 33 C-27.2211076 26.93627921 -26.89342816 19.83794829 -24.9375 13.625 C-21.56543565 9.05639669 -17.31875996 5.1430901 -12 3 C-9.11844473 2.641334 -6.26230045 2.49734042 -3.36328125 2.34375 C-2.58339844 2.2303125 -1.80351563 2.116875 -1 2 C-0.67 1.34 -0.34 0.68 0 0 Z " fill="#714ADB" transform="translate(128,243)"/>
<path d="M0 0 C3.57522036 1.91714715 5.69716116 4.09148347 7 8 C7.32707214 11.28602301 7.36942942 14.57475071 7.4375 17.875 C7.48326172 18.77347656 7.52902344 19.67195313 7.57617188 20.59765625 C7.68609426 27.06873927 7.68609426 27.06873927 5.73876953 29.71191406 C1.43122492 33.41856087 -2.19426589 34.12712628 -7.6875 34.0625 C-8.68136719 34.05347656 -9.67523438 34.04445313 -10.69921875 34.03515625 C-11.83810547 34.01775391 -11.83810547 34.01775391 -13 34 C-13 36.97 -13 39.94 -13 43 C-15 44 -15 44 -24 43 C-24 29.14 -24 15.28 -24 1 C-20 1 -16 1 -12 1 C-7.92814056 -0.35728648 -4.25316911 -0.6593499 0 0 Z M-13 10 C-13 14.62 -13 19.24 -13 24 C-11.081875 24.0928125 -11.081875 24.0928125 -9.125 24.1875 C-8.40570313 24.22230469 -7.68640625 24.25710938 -6.9453125 24.29296875 C-6.30335938 24.19628906 -5.66140625 24.09960938 -5 24 C-3.00174039 21.00261059 -2.72449602 20.36652492 -2.75 17 C-2.74484375 16.319375 -2.7396875 15.63875 -2.734375 14.9375 C-2.90082397 12.67583993 -2.90082397 12.67583993 -5 10 C-6.97747122 9.63702064 -6.97747122 9.63702064 -9.125 9.8125 C-10.40375 9.874375 -11.6825 9.93625 -13 10 Z " fill="#162D4D" transform="translate(240,239)"/>
<path d="M0 0 C3.41277006 2.13298129 3.99574668 4.30657174 5.0390625 8.10546875 C5.81894561 12.26264228 6.4450305 16.67243899 4.5 20.5625 C-1.44 20.5625 -7.38 20.5625 -13.5 20.5625 C-13.17 21.2225 -12.84 21.8825 -12.5 22.5625 C-7.22 22.5625 -1.94 22.5625 3.5 22.5625 C3.5 25.5325 3.5 28.5025 3.5 31.5625 C-3.85504934 34.33172038 -11.82765593 35.2087232 -19.125 31.9375 C-23.7790612 27.2834388 -24.69654625 23.60881975 -24.875 17.125 C-24.72269508 11.77605116 -24.46135164 8.05229119 -21.5 3.5625 C-14.88602172 -1.81135735 -8.10549785 -1.01318723 0 0 Z M-13.5 9.5625 C-13.5 10.5525 -13.5 11.5425 -13.5 12.5625 C-10.09679066 13.23923447 -10.09679066 13.23923447 -6.5 13.5625 C-5.84 12.9025 -5.18 12.2425 -4.5 11.5625 C-4.5 10.9025 -4.5 10.2425 -4.5 9.5625 C-9.11507774 8.52035309 -9.11507774 8.52035309 -13.5 9.5625 Z " fill="#162C4C" transform="translate(338.5,239.4375)"/>
<path d="M0 0 C1.96066406 -0.03867188 1.96066406 -0.03867188 3.9609375 -0.078125 C8.77671409 0.35313858 11.26036112 1.88536112 14.625 5.25 C15.74677204 8.46264892 15.7406397 11.50973688 15.72265625 14.890625 C15.71943359 15.96054688 15.71621094 17.03046875 15.71289062 18.1328125 C15.70451172 19.24398438 15.69613281 20.35515625 15.6875 21.5 C15.68298828 22.62664062 15.67847656 23.75328125 15.67382812 24.9140625 C15.66205397 27.69276217 15.6456084 30.47135409 15.625 33.25 C14.70976562 33.23839844 13.79453125 33.22679687 12.8515625 33.21484375 C11.66304687 33.20582031 10.47453125 33.19679688 9.25 33.1875 C8.06664062 33.17589844 6.88328125 33.16429687 5.6640625 33.15234375 C2.70578479 33.03533407 2.70578479 33.03533407 0.625 34.25 C-3.7584637 34.77532669 -7.35599551 34.68671621 -11.4375 32.9375 C-14.07465009 29.27951761 -13.93526064 26.42259856 -13.94140625 22.00390625 C-13.1989212 18.39389271 -12.06351025 16.76690321 -9.375 14.25 C-6.140625 13.32421875 -6.140625 13.32421875 -2.625 12.9375 C-0.86929688 12.72673828 -0.86929688 12.72673828 0.921875 12.51171875 C1.81390625 12.42535156 2.7059375 12.33898437 3.625 12.25 C1.7621051 9.94939466 1.7621051 9.94939466 -1.1953125 10.0546875 C-2.28585938 10.07789063 -3.37640625 10.10109375 -4.5 10.125 C-6.14355469 10.15207031 -6.14355469 10.15207031 -7.8203125 10.1796875 C-8.66335937 10.20289063 -9.50640625 10.22609375 -10.375 10.25 C-10.375 7.28 -10.375 4.31 -10.375 1.25 C-6.78498391 0.05332797 -3.7845161 0.04461119 0 0 Z M-3.375 21.25 C-3.375 22.57 -3.375 23.89 -3.375 25.25 C0.76593698 25.45970559 0.76593698 25.45970559 4.625 24.25 C4.625 23.26 4.625 22.27 4.625 21.25 C1.985 21.25 -0.655 21.25 -3.375 21.25 Z " fill="#172C4C" transform="translate(196.375,238.75)"/>
<path d="M0 0 C0.94101563 -0.00257813 1.88203125 -0.00515625 2.8515625 -0.0078125 C5.375 0.125 5.375 0.125 8.375 1.125 C8.375 4.425 8.375 7.725 8.375 11.125 C6.1165625 11.063125 6.1165625 11.063125 3.8125 11 C-0.76092293 11.00649634 -4.37801759 11.40813477 -8.625 13.125 C-9.64202117 16.1760635 -9.79082083 18.36699061 -9.8125 21.5625 C-9.83376953 22.98369141 -9.83376953 22.98369141 -9.85546875 24.43359375 C-9.61693802 27.21914752 -9.20864751 28.83107868 -7.625 31.125 C-1.9126543 32.67209363 3.56757018 31.88452301 9.375 31.125 C9.375 34.095 9.375 37.065 9.375 40.125 C2.91091288 43.73286258 -3.32843317 43.82930182 -10.625 43.125 C-14.31424498 41.78923889 -17.26796653 40.30699518 -19.625 37.125 C-23.11423236 28.60148775 -23.32982313 15.47151695 -19.8046875 6.79296875 C-17.03855936 2.88192002 -12.69153208 1.62821398 -8.21875 0.5390625 C-5.438994 0.09530627 -2.81398087 -0.00775201 0 0 Z " fill="#162C4B" transform="translate(172.625,229.875)"/>
<path d="M0 0 C3.63467079 1.62400184 4.77408696 2.66113044 7 6 C7.22705078 8.8190918 7.22705078 8.8190918 7.1953125 12.19921875 C7.18886719 13.40771484 7.18242187 14.61621094 7.17578125 15.86132812 C7.15902344 17.12396484 7.14226562 18.38660156 7.125 19.6875 C7.11597656 20.96173828 7.10695313 22.23597656 7.09765625 23.54882812 C7.07405641 26.69940627 7.04113194 29.84960983 7 33 C3.7 33 0.4 33 -3 33 C-3.33 25.74 -3.66 18.48 -4 11 C-6.64 11 -9.28 11 -12 11 C-12.33 18.26 -12.66 25.52 -13 33 C-16.63 33 -20.26 33 -24 33 C-24 22.44 -24 11.88 -24 1 C-19.66666667 1 -15.33333333 1 -11 1 C-7.55359623 -0.72320188 -3.7757718 -0.3723512 0 0 Z " fill="#172C4C" transform="translate(303,239)"/>
<path d="M0 0 C0.69351562 -0.00386719 1.38703125 -0.00773438 2.1015625 -0.01171875 C7.24833354 -0.00166646 7.24833354 -0.00166646 8.375 1.125 C8.44679964 2.64428038 8.45892007 4.16667482 8.4375 5.6875 C8.42847656 6.51378906 8.41945313 7.34007812 8.41015625 8.19140625 C8.39855469 8.82949219 8.38695312 9.46757812 8.375 10.125 C7.52035156 10.11339844 6.66570312 10.10179687 5.78515625 10.08984375 C4.68042969 10.08082031 3.57570313 10.07179687 2.4375 10.0625 C0.78427734 10.04509766 0.78427734 10.04509766 -0.90234375 10.02734375 C-3.53947634 9.81237429 -3.53947634 9.81237429 -4.625 11.125 C-3.79355469 11.30675781 -2.96210938 11.48851562 -2.10546875 11.67578125 C-1.01878906 11.92714844 0.06789063 12.17851562 1.1875 12.4375 C2.80591797 12.80294922 2.80591797 12.80294922 4.45703125 13.17578125 C7.3793754 14.12642332 8.67565405 14.59925978 10.375 17.125 C11.32856864 22.11620162 10.85759204 26.17645703 8.5625 30.6875 C5.64429593 33.9392131 4.02056354 34.0894393 -0.3125 34.328125 C-1.74992834 34.34934165 -3.1874515 34.36476834 -4.625 34.375 C-5.34945313 34.395625 -6.07390625 34.41625 -6.8203125 34.4375 C-12.07301166 34.47626531 -12.07301166 34.47626531 -14.64453125 32.83984375 C-16.30055768 29.94344692 -15.27531648 27.25834303 -14.625 24.125 C-13.69816406 24.13660156 -12.77132812 24.14820313 -11.81640625 24.16015625 C-10.02009766 24.17369141 -10.02009766 24.17369141 -8.1875 24.1875 C-6.99253906 24.19910156 -5.79757812 24.21070313 -4.56640625 24.22265625 C-1.73626659 24.46401792 -1.73626659 24.46401792 -0.625 23.125 C-1.45644531 22.95484375 -2.28789062 22.7846875 -3.14453125 22.609375 C-4.23121094 22.36703125 -5.31789063 22.1246875 -6.4375 21.875 C-7.51644531 21.64296875 -8.59539062 21.4109375 -9.70703125 21.171875 C-12.97184906 20.00056151 -13.92523326 19.0868009 -15.625 16.125 C-16.9755527 12.55568216 -16.64428781 11.18093466 -15.375 7.5 C-11.64361377 0.30375513 -7.74927026 -0.04369889 0 0 Z " fill="#182C4C" transform="translate(265.625,238.875)"/>
<path d="M0 0 C2.97 0 5.94 0 9 0 C9.33 2.31 9.66 4.62 10 7 C11.134375 6.979375 12.26875 6.95875 13.4375 6.9375 C17 7 17 7 18 8 C18.14193337 11.00331018 18.04236378 13.99217134 18 17 C15.03 17 12.06 17 9 17 C9.33 21.29 9.66 25.58 10 30 C12.64 30 15.28 30 18 30 C18 33.3 18 36.6 18 40 C14.31859602 41.84070199 10.02730403 41.36784824 6 41 C2.97713116 39.61451845 1.33128575 38.33128575 -1 36 C-2.17242384 31.90757718 -2.10206956 27.9214431 -2.0625 23.6875 C-2.05347656 22.43324219 -2.04445313 21.17898437 -2.03515625 19.88671875 C-2.02355469 18.93410156 -2.01195312 17.98148438 -2 17 C-3.32 16.67 -4.64 16.34 -6 16 C-5.67 13.36 -5.34 10.72 -5 8 C-4.01 7.67 -3.02 7.34 -2 7 C-0.77030122 3.48809191 -0.77030122 3.48809191 0 0 Z " fill="#172C4A" transform="translate(351,232)"/>
<path d="M0 0 C6.6655438 5.40892489 12.19970206 12.95904026 13.4375 21.5625 C13.52 22.779375 13.6025 23.99625 13.6875 25.25 C12.03121963 26.90628037 9.90124797 26.41233158 7.625 26.5 C1.80723012 26.96844381 -1.74740494 28.73756215 -6.3125 32.25 C-7.1375 32.848125 -7.9625 33.44625 -8.8125 34.0625 C-9.3075 34.454375 -9.8025 34.84625 -10.3125 35.25 C-10.3125 32.25 -10.3125 32.25 -7.9375 29.8125 C-3.87757094 26.5918832 0.84583529 24.96276281 5.6875 23.25 C5.1925 21.765 5.1925 21.765 4.6875 20.25 C5.3475 19.26 6.0075 18.27 6.6875 17.25 C6.6875 14.16169186 5.00511743 11.9025185 3.5625 9.22265625 C2.6875 7.25 2.6875 7.25 2.6875 4.25 C2.0275 4.25 1.3675 4.25 0.6875 4.25 C0.6875 3.59 0.6875 2.93 0.6875 2.25 C-0.26125 1.940625 -1.21 1.63125 -2.1875 1.3125 C-5.3125 0.25 -5.3125 0.25 -7.3125 -0.75 C-7.3125 -1.41 -7.3125 -2.07 -7.3125 -2.75 C-13.24877021 -4.05433619 -19.14582252 -3.86086318 -25.1875 -3.8125 C-26.25742188 -3.80798828 -27.32734375 -3.80347656 -28.4296875 -3.79882812 C-31.05734986 -3.78709749 -33.68489538 -3.77068228 -36.3125 -3.75 C-36.6425 -3.09 -36.9725 -2.43 -37.3125 -1.75 C-37.3125 -2.74 -37.3125 -3.73 -37.3125 -4.75 C-24.39210149 -8.88452752 -11.25065149 -7.78400462 0 0 Z " fill="#52BFD6" transform="translate(114.3125,219.75)"/>
<path d="M0 0 C0.66 0 1.32 0 2 0 C2 0.66 2 1.32 2 2 C2.66 2 3.32 2 4 2 C4.45375 2.969375 4.9075 3.93875 5.375 4.9375 C6.65786221 8.07079582 6.65786221 8.07079582 9 9 C11.7235195 8.91075148 14.41013311 8.76646668 17.125 8.5625 C18.25615234 8.48418945 18.25615234 8.48418945 19.41015625 8.40429688 C21.2737937 8.27454996 23.13694996 8.13792512 25 8 C24.67 6.35 24.34 4.7 24 3 C20.37 3 16.74 3 13 3 C13 2.67 13 2.34 13 2 C17.95 1.67 22.9 1.34 28 1 C28 3.97 28 6.94 28 10 C20.64495066 12.76922038 12.67234407 13.6462232 5.375 10.375 C2.75008579 7.75008579 1.34951854 5.44876961 0 2 C0 1.34 0 0.68 0 0 Z " fill="#1C2B41" transform="translate(314,261)"/>
<path d="M0 0 C1.32 1.32 2.64 2.64 4 4 C3.4375 6.375 3.4375 6.375 2 9 C-5.06097995 12.37001316 -14.5866363 12.15751012 -22.0234375 10.20703125 C-26.05933866 8.66250016 -29.07754707 7.2378923 -32 4 C-26.48320454 4.80733592 -21.28394639 6.23868454 -16 8 C-13.66413732 7.9382344 -11.32976785 7.80458627 -9 7.625 C-7.7625 7.53476562 -6.525 7.44453125 -5.25 7.3515625 C-1.9928784 7.11560774 -1.9928784 7.11560774 1 6 C0.505 3.03 0.505 3.03 0 0 Z " fill="#61B6BA" transform="translate(103,276)"/>
<path d="M0 0 C1.97484893 1.24501346 3.93254356 2.51752904 5.875 3.8125 C5.215 5.1325 4.555 6.4525 3.875 7.8125 C3.215 6.4925 2.555 5.1725 1.875 3.8125 C-0.435 3.8125 -2.745 3.8125 -5.125 3.8125 C-5.125 7.7725 -5.125 11.7325 -5.125 15.8125 C-2.815 15.8125 -0.505 15.8125 1.875 15.8125 C2.865 13.8325 3.855 11.8525 4.875 9.8125 C5.865 9.8125 6.855 9.8125 7.875 9.8125 C7.875 10.8025 7.875 11.7925 7.875 12.8125 C6.885 13.3075 6.885 13.3075 5.875 13.8125 C5.545 14.8025 5.215 15.7925 4.875 16.8125 C1.62780737 18.97729509 0.99705971 19.06384712 -2.6875 18.6875 C-3.47253906 18.62304688 -4.25757813 18.55859375 -5.06640625 18.4921875 C-7.125 17.8125 -7.125 17.8125 -8.45703125 15.9921875 C-9.49307375 12.61141725 -8.2508598 10.06498386 -7.125 6.8125 C-7.785 6.8125 -8.445 6.8125 -9.125 6.8125 C-8.85093587 3.4323757 -8.48221628 2.13909774 -5.9375 -0.1875 C-3.125 -1.1875 -3.125 -1.1875 0 0 Z " fill="#192A40" transform="translate(233.125,246.1875)"/>
<path d="M0 0 C3.32233503 2.67424093 5.45344545 5.43415453 7.5625 9.125 C6.2425 9.125 4.9225 9.125 3.5625 9.125 C3.0675 6.65 3.0675 6.65 2.5625 4.125 C1.9025 4.125 1.2425 4.125 0.5625 4.125 C0.5625 3.465 0.5625 2.805 0.5625 2.125 C-0.38625 1.815625 -1.335 1.50625 -2.3125 1.1875 C-5.4375 0.125 -5.4375 0.125 -7.4375 -0.875 C-7.4375 -1.535 -7.4375 -2.195 -7.4375 -2.875 C-13.37377021 -4.17933619 -19.27082252 -3.98586318 -25.3125 -3.9375 C-26.38242188 -3.93298828 -27.45234375 -3.92847656 -28.5546875 -3.92382812 C-31.18234986 -3.91209749 -33.80989538 -3.89568228 -36.4375 -3.875 C-36.7675 -3.215 -37.0975 -2.555 -37.4375 -1.875 C-37.4375 -2.865 -37.4375 -3.855 -37.4375 -4.875 C-24.43538727 -9.03567607 -11.27369443 -7.88950991 0 0 Z " fill="#63B5B8" transform="translate(114.4375,219.875)"/>
<path d="M0 0 C0.99 0.66 1.98 1.32 3 2 C3 2.66 3 3.32 3 4 C2.16597656 4.01417969 1.33195312 4.02835938 0.47265625 4.04296875 C-7.04395598 4.36154224 -12.98420845 5.23692477 -19 10 C-19.99 11.485 -19.99 11.485 -21 13 C-21.66 13 -22.32 13 -23 13 C-24.59309014 20.76631443 -25.06822272 27.00265693 -21 34 C-20.3125 36.375 -20.3125 36.375 -20 38 C-24.33370676 33.99965529 -25.78402161 31.98216311 -26.203125 26.1953125 C-26.3655006 15.55971049 -26.3655006 15.55971049 -23 11 C-16.75720814 4.75720814 -12.15698496 2.80964159 -3.36328125 2.34375 C-2.58339844 2.2303125 -1.80351563 2.116875 -1 2 C-0.67 1.34 -0.34 0.68 0 0 Z " fill="#465EC6" transform="translate(128,243)"/>
<path d="M0 0 C2.85231484 0.95077161 3.83323272 1.68314218 5.25 4.375 C6.72296553 11.49433338 7.50096491 18.38019185 3.5 24.75 C2.69290967 25.85302346 1.86886451 26.94495023 1 28 C0 25 0 25 0.9375 22.9375 C2.98453475 17.27805099 2.48767031 10.78538452 1 5 C0.66666667 3.33333333 0.33333333 1.66666667 0 0 Z " fill="#7350CA" transform="translate(138,253)"/>
<path d="M0 0 C0.66 0.33 1.32 0.66 2 1 C0.22555028 3.24606427 -0.58352485 3.95081002 -3.48046875 4.29296875 C-4.82044922 4.24076172 -4.82044922 4.24076172 -6.1875 4.1875 C-7.53908203 4.14689453 -7.53908203 4.14689453 -8.91796875 4.10546875 C-9.60503906 4.07066406 -10.29210937 4.03585937 -11 4 C-11.042721 5.66611905 -11.04063832 7.33382885 -11 9 C-9.12175109 10.87824891 -5.96064724 10.39102397 -3.4375 10.5625 C-2.23996094 10.64628906 -1.04242188 10.73007812 0.19140625 10.81640625 C1.11824219 10.87699219 2.04507812 10.93757813 3 11 C3 11.33 3 11.66 3 12 C0.39521117 12.0809313 -2.20706653 12.14045434 -4.8125 12.1875 C-5.91948242 12.22520508 -5.91948242 12.22520508 -7.04882812 12.26367188 C-12.46541433 12.33720019 -12.46541433 12.33720019 -15.03125 10.71875 C-16.6671719 7.81630791 -15.64985733 5.13113078 -15 2 C-14.08476562 2.02320313 -13.16953125 2.04640625 -12.2265625 2.0703125 C-10.44378906 2.09738281 -10.44378906 2.09738281 -8.625 2.125 C-6.84996094 2.15980469 -6.84996094 2.15980469 -5.0390625 2.1953125 C-1.88846183 2.32866229 -1.88846183 2.32866229 0 0 Z " fill="#1D2C43" transform="translate(266,261)"/>
<path d="M0 0 C0.99 0.495 0.99 0.495 2 1 C1.94199219 1.72703125 1.88398437 2.4540625 1.82421875 3.203125 C1.44660327 11.61855569 3.40784957 17.47415041 7 25 C7.33 25.99 7.66 26.98 8 28 C9.2065625 28.6496875 9.2065625 28.6496875 10.4375 29.3125 C13.70225371 31.46245976 14.09197007 33.28533211 15 37 C7.72625434 31.46608399 1.81455431 24.20238257 0 15 C-0.23470283 9.98450258 -0.17634506 5.01603728 0 0 Z " fill="#63B3B7" transform="translate(55,243)"/>
<path d="M0 0 C0.70189453 0.00451172 1.40378906 0.00902344 2.12695312 0.01367188 C3.85550538 0.02543073 5.58401365 0.04336546 7.3125 0.0625 C6.9825 0.7225 6.6525 1.3825 6.3125 2.0625 C3.58984375 2.4765625 3.58984375 2.4765625 0.25 2.6875 C-0.85472656 2.76226562 -1.95945313 2.83703125 -3.09765625 2.9140625 C-3.95230469 2.96304688 -4.80695313 3.01203125 -5.6875 3.0625 C-6.68967064 6.64577753 -6.68967064 6.64577753 -5.6875 10.0625 C-7.3375 10.0625 -8.9875 10.0625 -10.6875 10.0625 C-10.6875 7.0925 -10.6875 4.1225 -10.6875 1.0625 C-7.06882441 -0.1437252 -3.76243749 -0.04566918 0 0 Z " fill="#1D2B43" transform="translate(196.6875,238.9375)"/>
<path d="M0 0 C3.79303725 1.00193437 6.71536341 1.81024227 10 4 C14.52275116 3.7700296 18.17217285 3.03622676 22.375 1.375 C24.169375 0.694375 24.169375 0.694375 26 0 C26.66 0.33 27.32 0.66 28 1 C22.30260469 5.77349337 18.38602931 6.32734883 11.09765625 6.30078125 C6.62583272 5.86656888 3.79965976 4.33825216 0 2 C0 1.34 0 0.68 0 0 Z " fill="#6855AC" transform="translate(109,282)"/>
<path d="M0 0 C0.66 0.33 1.32 0.66 2 1 C1.835 1.78375 1.67 2.5675 1.5 3.375 C0.42911945 11.138884 0.4315991 17.8631982 4 25 C5.64363134 25.72159424 7.31050386 26.39351421 9 27 C9 28.32 9 29.64 9 31 C5.64552375 29.82140024 3.16075263 28.8810035 1 26 C-1.08780096 20.99384952 -1.27474724 16.63458148 -1.1875 11.3125 C-1.18685547 10.55388672 -1.18621094 9.79527344 -1.18554688 9.01367188 C-1.15970931 5.76100988 -1.03491238 3.10473714 0 0 Z " fill="#202C40" transform="translate(152,241)"/>
<path d="M0 0 C1.32 1.32 2.64 2.64 4 4 C3.34 5.65 2.68 7.3 2 9 C-3.94 9.33 -9.88 9.66 -16 10 C-16 9.34 -16 8.68 -16 8 C-15.02417969 7.93941406 -14.04835938 7.87882812 -13.04296875 7.81640625 C-11.77066406 7.73261719 -10.49835938 7.64882813 -9.1875 7.5625 C-7.92292969 7.48128906 -6.65835938 7.40007812 -5.35546875 7.31640625 C-2.00818107 7.12815453 -2.00818107 7.12815453 1 6 C0.67 4.02 0.34 2.04 0 0 Z " fill="#5BBACF" transform="translate(103,276)"/>
<path d="M0 0 C0.66 0 1.32 0 2 0 C1.83628906 0.65355469 1.67257813 1.30710937 1.50390625 1.98046875 C0.87151437 5.76991774 0.89303291 9.48490951 0.9375 13.3125 C0.94201172 14.05306641 0.94652344 14.79363281 0.95117188 15.55664062 C0.96287825 17.37112899 0.98081102 19.18557534 1 21 C0.67 20.34 0.34 19.68 0 19 C-0.66 19 -1.32 19 -2 19 C-2.05411124 16.58303128 -2.09372278 14.16728213 -2.125 11.75 C-2.14175781 11.06808594 -2.15851563 10.38617188 -2.17578125 9.68359375 C-2.21213482 5.9391765 -2.07944349 3.17647273 0 0 Z " fill="#56B8E5" transform="translate(102,255)"/>
<path d="M0 0 C0.66 0.66 1.32 1.32 2 2 C0.6078125 2.5259375 0.6078125 2.5259375 -0.8125 3.0625 C-4.9857645 5.59919019 -5.46185496 7.4710174 -7 12 C-7.66 12 -8.32 12 -9 12 C-9.33 12.66 -9.66 13.32 -10 14 C-10.99 13.67 -11.98 13.34 -13 13 C-9.14729638 7.6654873 -5.7858359 3.24571282 0 0 Z " fill="#64B0B4" transform="translate(72,218)"/>
<path d="M0 0 C-3.49629546 3.08496658 -6.43587428 4.93180036 -11 6 C-13.375 5.625 -13.375 5.625 -15 5 C-14.3125 3.0625 -14.3125 3.0625 -13 1 C-8.84603184 -0.46610641 -4.35433475 -0.07380228 0 0 Z " fill="#4EC8CE" transform="translate(86,216)"/>
<path d="M0 0 C2.64 0.33 5.28 0.66 8 1 C8 1.99 8 2.98 8 4 C5.8614515 6.1385485 4.86724686 6.42655063 2 7 C0.5393715 4.35261084 0 3.10551666 0 0 Z " fill="#7D4EDF" transform="translate(128,250)"/>
<path d="M0 0 C0 0.33 0 0.66 0 1 C-1.01320313 1.18175781 -1.01320313 1.18175781 -2.046875 1.3671875 C-2.93890625 1.53476563 -3.8309375 1.70234375 -4.75 1.875 C-6.07257813 2.11863281 -6.07257813 2.11863281 -7.421875 2.3671875 C-9.91794938 2.9798603 -11.84080892 3.60916971 -14 5 C-14.33 5.99 -14.66 6.98 -15 8 C-16.65 8 -18.3 8 -20 8 C-13.78490906 1.23651868 -8.94068624 -0.53644117 0 0 Z " fill="#5F4DD4" transform="translate(127,247)"/>
<path d="M0 0 C0 3 0 3 -1 6 C-0.34 6 0.32 6 1 6 C3.125 12.625 3.125 12.625 2 16 C-0.53309233 11.35796103 -2.46515599 7.34844008 -3 2 C-2.01 1.34 -1.02 0.68 0 0 Z " fill="#4DC9D1" transform="translate(61,256)"/>
<path d="M0 0 C4.62609198 -0.3227506 7.28026121 0.15549386 11 3 C11 3.66 11 4.32 11 5 C8.69 5 6.38 5 4 5 C3.67 4.34 3.34 3.68 3 3 C2.01 2.67 1.02 2.34 0 2 C0 1.34 0 0.68 0 0 Z " fill="#6D54B4" transform="translate(127,247)"/>
<path d="M0 0 C0.66 0.33 1.32 0.66 2 1 C-0.82254213 3.70028512 -2.39646601 4.92924572 -6.33203125 5.390625 C-7.48058594 5.34421875 -8.62914063 5.2978125 -9.8125 5.25 C-11.55466797 5.19585937 -11.55466797 5.19585937 -13.33203125 5.140625 C-14.21246094 5.09421875 -15.09289062 5.0478125 -16 5 C-16 4.67 -16 4.34 -16 4 C-14.845 3.896875 -13.69 3.79375 -12.5 3.6875 C-9.30922732 3.30710539 -6.60565076 2.57053574 -3.625 1.375 C-1.830625 0.694375 -1.830625 0.694375 0 0 Z " fill="#664DB6" transform="translate(135,282)"/>
<path d="M0 0 C0.33 0 0.66 0 1 0 C1.61046468 8.13952903 1.2922002 13.5737569 -4 20 C-4.33 19.01 -4.66 18.02 -5 17 C-4.071875 15.7625 -4.071875 15.7625 -3.125 14.5 C0.03734675 10.20357028 -0.18358707 5.15879678 0 0 Z " fill="#644FA0" transform="translate(143,261)"/>
<path d="M0 0 C0.33 0.66 0.66 1.32 1 2 C0.34 2.66 -0.32 3.32 -1 4 C-1.33 3.67 -1.66 3.34 -2 3 C-6.07476345 2.7283491 -8.42631567 3.15154259 -12 5 C-12.99 4.67 -13.98 4.34 -15 4 C-12.27893306 1.27893306 -10.15223689 1.39344428 -6.375 0.875 C-5.18648437 0.70742187 -3.99796875 0.53984375 -2.7734375 0.3671875 C-1.85820312 0.24601563 -0.94296875 0.12484375 0 0 Z " fill="#1C2940" transform="translate(200,251)"/>
<path d="M0 0 C0 1.65 0 3.3 0 5 C-1.32 5.33 -2.64 5.66 -4 6 C-4 4.68 -4 3.36 -4 2 C-5.98 2 -7.96 2 -10 2 C-10 1.67 -10 1.34 -10 1 C-3.375 0 -3.375 0 0 0 Z " fill="#1A283D" transform="translate(182,261)"/>
<path d="M0 0 C3.3 0 6.6 0 10 0 C7 3 7 3 4 4 C1.8125 3.0625 1.8125 3.0625 0 2 C0 1.34 0 0.68 0 0 Z " fill="#1F2C42" transform="translate(325,239)"/>
<path d="M0 0 C1.42944945 2.35438733 2.08661261 3.48032433 1.625 6.25 C1.41875 6.8275 1.2125 7.405 1 8 C-0.98 8 -2.96 8 -5 8 C-4.01 7.34 -3.02 6.68 -2 6 C-0.78715124 2.94570927 -0.78715124 2.94570927 0 0 Z " fill="#5EA3C8" transform="translate(126,238)"/>
<path d="M0 0 C0.33 0 0.66 0 1 0 C1 2.97 1 5.94 1 9 C-1.31 9 -3.62 9 -6 9 C-6 8.34 -6 7.68 -6 7 C-4.35 6.67 -2.7 6.34 -1 6 C-0.67 4.02 -0.34 2.04 0 0 Z " fill="#1E2D3D" transform="translate(368,240)"/>
<path d="M0 0 C0.33 0 0.66 0 1 0 C1 1.98 1 3.96 1 6 C-0.98 6.99 -0.98 6.99 -3 8 C-2.45276317 4.62537285 -1.9451 2.91765 0 0 Z " fill="#50C8CD" transform="translate(68,222)"/>
<path d="M0 0 C1.9375 0.625 1.9375 0.625 4 2 C4.75 5.125 4.75 5.125 5 8 C2.21611025 6.29374499 1.14615794 5.52373261 0.25 2.3125 C0.1675 1.549375 0.085 0.78625 0 0 Z " fill="#6A53AA" transform="translate(138,253)"/>
<path d="M0 0 C-1 2 -1 2 -2.84765625 2.6328125 C-3.57855469 2.79523438 -4.30945313 2.95765625 -5.0625 3.125 C-6.16271484 3.37636719 -6.16271484 3.37636719 -7.28515625 3.6328125 C-7.85105469 3.75398437 -8.41695312 3.87515625 -9 4 C-8.67 3.01 -8.34 2.02 -8 1 C-5.29120665 -0.35439668 -2.99066732 -0.06501451 0 0 Z " fill="#202E45" transform="translate(168,231)"/>
<path d="M0 0 C0.928125 0.2784375 0.928125 0.2784375 1.875 0.5625 C4.04160178 1.23686176 4.04160178 1.23686176 6 0 C5.25 1.9375 5.25 1.9375 4 4 C2 4.875 2 4.875 0 5 C-0.66 4.34 -1.32 3.68 -2 3 C-1.34 3 -0.68 3 0 3 C0 2.01 0 1.02 0 0 Z " fill="#7852D5" transform="translate(130,280)"/>
<path d="M0 0 C0.66 0 1.32 0 2 0 C2.79953138 3.28696233 3.09658936 4.71023192 2 8 C1.34 8 0.68 8 0 8 C-0.79953138 4.71303767 -1.09658936 3.28976808 0 0 Z " fill="#13263F" transform="translate(250,247)"/>
<path d="" fill="#404040" transform="translate(0,0)"/>
<path d="" fill="#555555" transform="translate(0,0)"/>
<path d="" fill="#000000" transform="translate(0,0)"/>
<path d="" fill="#000000" transform="translate(0,0)"/>
<path d="" fill="#000000" transform="translate(0,0)"/>
<path d="" fill="#555555" transform="translate(0,0)"/>
<path d="" fill="#000000" transform="translate(0,0)"/>
<path d="" fill="#000000" transform="translate(0,0)"/>
<path d="" fill="#000000" transform="translate(0,0)"/>
<path d="" fill="#005555" transform="translate(0,0)"/>
<path d="" fill="#000000" transform="translate(0,0)"/>
<path d="" fill="#000000" transform="translate(0,0)"/>
<path d="" fill="#000000" transform="translate(0,0)"/>
<path d="" fill="#000000" transform="translate(0,0)"/>
<path d="" fill="#000000" transform="translate(0,0)"/>
<path d="" fill="#005555" transform="translate(0,0)"/>
<path d="" fill="#000000" transform="translate(0,0)"/>
<path d="" fill="#000000" transform="translate(0,0)"/>
</svg>
